<svg xmlns="http://www.w3.org/2000/svg" width="630" height="230" viewBox="0 0 630 230">
<style>text{font:13px sans-serif}.grid{stroke:#bbb;stroke-width:1}.axis{stroke:#333;stroke-width:2}.shape{fill:none;stroke-width:3}.endpoint{stroke:none}</style>
<line class="grid" x1="30" y1="30" x2="30" y2="190"/>
<line class="grid" x1="30" y1="190" x2="190" y2="190"/>
<text x="30" y="210" text-anchor="middle">0</text>
<text x="20" y="194" text-anchor="end">0</text>
<line class="grid" x1="70" y1="30" x2="70" y2="190"/>
<line class="grid" x1="30" y1="150" x2="190" y2="150"/>
<text x="70" y="210" text-anchor="middle">1</text>
<text x="20" y="154" text-anchor="end">1</text>
<line class="grid" x1="110" y1="30" x2="110" y2="190"/>
<line class="grid" x1="30" y1="110" x2="190" y2="110"/>
<text x="110" y="210" text-anchor="middle">2</text>
<text x="20" y="114" text-anchor="end">2</text>
<line class="grid" x1="150" y1="30" x2="150" y2="190"/>
<line class="grid" x1="30" y1="70" x2="190" y2="70"/>
<text x="150" y="210" text-anchor="middle">3</text>
<text x="20" y="74" text-anchor="end">3</text>
<line class="grid" x1="190" y1="30" x2="190" y2="190"/>
<line class="grid" x1="30" y1="30" x2="190" y2="30"/>
<text x="190" y="210" text-anchor="middle">4</text>
<text x="20" y="34" text-anchor="end">4</text>
<line class="axis" x1="30" y1="190" x2="200" y2="190"/>
<line class="axis" x1="30" y1="190" x2="30" y2="20"/>
<text x="208" y="194">x</text>
<text x="26" y="15">y</text>
<line class="shape" x1="110" y1="150" x2="110" y2="70" stroke="#111827"/>
<circle class="endpoint" cx="110" cy="150" r="4" fill="#111827"/>
<circle class="endpoint" cx="110" cy="70" r="4" fill="#111827"/>
<text x="117" y="103" fill="#111827">L</text>
<circle cx="190" cy="30" r="4" fill="#16a34a"/>
<text x="197" y="23" fill="#16a34a">P</text>
<line class="grid" x1="240" y1="30" x2="240" y2="190"/>
<line class="grid" x1="240" y1="190" x2="400" y2="190"/>
<text x="240" y="210" text-anchor="middle">0</text>
<text x="230" y="194" text-anchor="end">0</text>
<line class="grid" x1="280" y1="30" x2="280" y2="190"/>
<line class="grid" x1="240" y1="150" x2="400" y2="150"/>
<text x="280" y="210" text-anchor="middle">1</text>
<text x="230" y="154" text-anchor="end">1</text>
<line class="grid" x1="320" y1="30" x2="320" y2="190"/>
<line class="grid" x1="240" y1="110" x2="400" y2="110"/>
<text x="320" y="210" text-anchor="middle">2</text>
<text x="230" y="114" text-anchor="end">2</text>
<line class="grid" x1="360" y1="30" x2="360" y2="190"/>
<line class="grid" x1="240" y1="70" x2="400" y2="70"/>
<text x="360" y="210" text-anchor="middle">3</text>
<text x="230" y="74" text-anchor="end">3</text>
<line class="grid" x1="400" y1="30" x2="400" y2="190"/>
<line class="grid" x1="240" y1="30" x2="400" y2="30"/>
<text x="400" y="210" text-anchor="middle">4</text>
<text x="230" y="34" text-anchor="end">4</text>
<line class="axis" x1="240" y1="190" x2="410" y2="190"/>
<line class="axis" x1="240" y1="190" x2="240" y2="20"/>
<text x="418" y="194">x</text>
<text x="236" y="15">y</text>
<line class="shape" x1="320" y1="150" x2="320" y2="70" stroke="#111827"/>
<circle class="endpoint" cx="320" cy="150" r="4" fill="#111827"/>
<circle class="endpoint" cx="320" cy="70" r="4" fill="#111827"/>
<text x="327" y="103" fill="#111827">L</text>
<circle cx="280" cy="110" r="4" fill="#dc2626"/>
<text x="287" y="103" fill="#dc2626">P</text>
<line class="grid" x1="450" y1="30" x2="450" y2="190"/>
<line class="grid" x1="450" y1="190" x2="610" y2="190"/>
<text x="450" y="210" text-anchor="middle">0</text>
<text x="440" y="194" text-anchor="end">0</text>
<line class="grid" x1="490" y1="30" x2="490" y2="190"/>
<line class="grid" x1="450" y1="150" x2="610" y2="150"/>
<text x="490" y="210" text-anchor="middle">1</text>
<text x="440" y="154" text-anchor="end">1</text>
<line class="grid" x1="530" y1="30" x2="530" y2="190"/>
<line class="grid" x1="450" y1="110" x2="610" y2="110"/>
<text x="530" y="210" text-anchor="middle">2</text>
<text x="440" y="114" text-anchor="end">2</text>
<line class="grid" x1="570" y1="30" x2="570" y2="190"/>
<line class="grid" x1="450" y1="70" x2="610" y2="70"/>
<text x="570" y="210" text-anchor="middle">3</text>
<text x="440" y="74" text-anchor="end">3</text>
<line class="grid" x1="610" y1="30" x2="610" y2="190"/>
<line class="grid" x1="450" y1="30" x2="610" y2="30"/>
<text x="610" y="210" text-anchor="middle">4</text>
<text x="440" y="34" text-anchor="end">4</text>
<line class="axis" x1="450" y1="190" x2="620" y2="190"/>
<line class="axis" x1="450" y1="190" x2="450" y2="20"/>
<text x="628" y="194">x</text>
<text x="446" y="15">y</text>
<line class="shape" x1="530" y1="150" x2="530" y2="70" stroke="#111827"/>
<circle class="endpoint" cx="530" cy="150" r="4" fill="#111827"/>
<circle class="endpoint" cx="530" cy="70" r="4" fill="#111827"/>
<text x="537" y="103" fill="#111827">L</text>
<circle cx="530" cy="110" r="4" fill="#dc2626"/>
<text x="537" y="103" fill="#dc2626">P</text>
</svg>